<?xml version="1.0" encoding="utf-8"?>
<!-- Generator: Adobe Illustrator 23.1.0, SVG Export Plug-In . SVG Version: 6.00 Build 0)  -->
<svg version="1.1" id="Слой_1" xmlns="http://www.w3.org/2000/svg" xmlns:xlink="http://www.w3.org/1999/xlink" x="0px" y="0px"
	 viewBox="0 0 155 50" fill="#3A3A3A"  xml:space="preserve">
<g>
	<path d="M39.3,19.9c0.2-0.9,0.1-1.6-0.1-2.2c-1.3-4-9.5-2.8-9-5.2c0.2-0.9,1.1-1.5,3.3-1.5H35L35.7,7h-1.6c-5.5,0-8.6,2.6-9.2,5.9
		c-1.2,6.7,9.7,4.6,9.1,7.5c-0.2,0.9-1.1,1.5-3.3,1.5c-2.1,0-4.3-0.7-5.8-1.8l-2.4,3.8c1.5,1.2,4.4,2,7.4,2c4.2,0,7-1.6,8.4-3.7
		C38.9,21.4,39.1,20.7,39.3,19.9z"/>
	<path d="M126.3,7h-8.4l-1.4,8.3c-2.8-1.1-6.6-1-6.3-2.7c0.2-0.9,1.1-1.5,3.3-1.5c0.6,0,3,0,3,0l0.7-4.1h0c0,0-2.4,0-3,0
		c-3.6,0-6.2,1.1-7.7,2.8c-0.1-0.2-0.2-0.3-0.3-0.5c-1.2-1.4-3.2-2.3-6-2.3h-8.4l-0.7,4.1l-0.5,3.1l-0.7,3.9L89,21.5l-0.7,3.7
		c-0.1,0-0.3,0-0.4,0l0.7-3.8h-5.5l0.6-3.4h5.5l0.7-3.9h-5.5l0.5-3.1h5.5L91.2,7H78.6l-8.5,7.8L71.5,7h-5.2l-0.2,1l-0.9,5.2
		l-1.2,6.7l-0.9,5.1c-0.1,0-0.3,0-0.4,0l0-0.1l0.6-3.2c-2.9-0.1-4.6-2.2-4.1-5.3c0.5-3.1,3-5.2,5.9-5.3l0.6-3.4L65.9,7h-0.1
		c-3.5,0-6.7,1.3-8.9,3.7c-0.3,0.3-0.6,0.7-0.8,1l0.2-1L56.9,7H36.3L35.6,11l0,0.1h5.7l-2.5,14.3h5.2l2.5-14.3h4.5l-0.1,0.6
		l-2.4,13.7l-0.1,0.3c-0.4,0.1-0.8,0.3-1.2,0.5c-3.7,2.2-8.2,4.7-9.2,9.3c-0.2,1.2,0.1,2.4,0.8,3.5c1.3,2,3.4,3.2,6.3,3.5
		c2.9,0.4,6.2,0.9,9.1,0c0.2-0.2,0.5-0.4,0.6-0.6c0.2-0.4,0.2-0.9,0-1.3c-0.2-0.4-0.6-0.7-1.1-0.9c-0.2-0.1-0.3-0.1-0.5-0.2
		c0,0,0,0,0,0c0,0,0,0-0.1,0c-0.3-0.1-0.7-0.1-1.1-0.1c0,0,0,0-0.1,0c-0.4,0-0.7-0.1-1.1-0.1c-1.7-0.2-3.1-0.5-4.1-0.8
		c-1.7-0.5-2.4-1.3-2.3-2.3c0-0.1,0-0.2,0-0.3c0.1-0.3,0.2-0.7,0.4-1c2.9-4.7,7.9-6.6,13.3-6.1c1,0.1,1.8,0.3,2.7,0.5
		c0.6,0,1.1-0.1,1.4-0.5c0.2,0.1,0.3,0.3,0.5,0.4c-2.6,3.8-5.9,7.9-7.4,12.4c0,0,0,0,0,0c-0.2,0.6-0.1,1.2,0.4,1.8
		c0.4,0.5,1.2,0.9,1.9,0.7c1.7-0.3,2.7-2.4,3.3-3.1c0.6-0.7,2.6-3.5,3-4.3c2.1-0.5,3.2-0.7,5.3-1.2c0.7,2.9,1.3,6.5,2.9,8.7
		c0.4,0.5,1.7,0.9,2.1,0.8c0.5,0,1-0.3,1.1-0.7c0,0,0,0,0,0c0,0,0,0,0,0c0,0,0.7-0.5,0.7-0.5c2.9-0.9,6-1.6,8.9-2.2
		c3.5-0.7,5.8-1.2,6.7-1.6c0.2-0.1,0.3-0.2,0.3-0.4c0-0.1,0-0.2,0-0.3c0-0.2-0.2-0.5-0.3-0.7c0,0,0,0,0,0c0-0.2,0-0.3-0.1-0.5
		c-0.2-0.3-0.6-0.6-1-0.7c-0.7-0.3-1.5-0.3-2.2,0c-2.6,0.5-5.1,0.9-7.7,1.2c0.9-2,1.7-3,2.3-3c4.8-0.9,6.7-1.2,7.2-1.8
		c0,0,0.2-0.3,0.3-0.5c0.1-0.2,0.1-0.4,0.1-0.7c-0.1-0.3-0.3-0.6-0.6-0.8c-0.3-0.2-0.6-0.3-0.9-0.5c-0.2-0.1-0.5-0.1-0.7-0.2
		c0,0-0.4,0-0.5,0c-0.1,0-0.2,0-0.3,0.1c-1.5,0.1-2.4,0.2-2.7,0.3c0,0-0.1,0-0.1,0c0.5-0.9,0.7-1.3,1.2-2.2c2.6-1,4.3-1.5,5.3-1.6
		c0,1.3,0,1.9,0,3.2c0.1,3.1,0.3,5.1,0.5,6c0.5,2.3,1.3,4.1,1.8,4.9c0.2,0.3,0.9,0.5,0.9,0.5s1.1,0.2,1.6,0.2c1.1-0.1,2-0.8,2.5-2.1
		c0.7-1.5,1.7-2.9,2.9-4.2c0.2,2.5,1.1,3.7,1.6,4.9c0.4,0.6,1.6,0.6,3.5,0.7c0.3,0,0.5,0,0.8-0.1c0.7-0.3,1.2-0.7,1.4-1.3
		c0.2-0.5,0.3-0.7,0.5-1.2c1.7-3.1,3.3-6.2,4.8-9.4c0.7-1.4,1.8-3,2.7-4.6h3.1l0.8-4.8h3.2c5,0,8.7-2.6,9.4-6.8
		C134,9.7,131.3,7,126.3,7z M105.7,17c0.1-0.1,0.2-0.3,0.3-0.5c2.6,2.2,8.4,1.6,8,3.8c-0.2,0.9-1.1,1.5-3.3,1.5
		c-2.1,0-4.3-0.7-5.8-1.8l-1.4,2.2l-0.2-0.4l-1-2C103.8,19.1,104.9,18.2,105.7,17z M96.1,11.2H99c2.2,0,3.1,1,2.8,2.7
		c-0.3,1.7-1.6,2.7-3.7,2.7h-2.9L96.1,11.2z M79.8,11.2l-0.1,0.5l-1.4,7.9L78.3,20l-2.9-4.8L79.8,11.2z M71.4,18.8l3.6,5.9
		c-1.1-0.2-2.3-0.3-3.4-0.4c-0.4,0-0.6,0-1,0c-0.8,0-1.5,0-2.1,0l0.6-3.4L71.4,18.8z M53.8,24.5l0.4-2.4l0.2-1
		c0.1,0.4,0.3,0.7,0.5,1c0.6,1,1.5,1.8,2.5,2.4C56.2,24.4,55,24.4,53.8,24.5z M67.1,31.8c-0.1,0-0.3-0.1-0.2-0.2
		c0.3-0.5,0.9-1.5,1.6-2.9c0.5-0.6,1.5-0.8,4.3-0.7c0.1,0,0.1,0,0.2,0c0.7,0,1,0.1,1.7,0.1c0.2,0,0.2,0.2,0.1,0.3
		C72.5,29.7,69.7,30.7,67.1,31.8z M74.8,39.3c-0.3-1.5-0.7-3.2-1.2-5.3c2.5-1.1,4.4-2,5.5-2.7C77.7,33.9,76.2,36.6,74.8,39.3z
		 M81.7,26.5c-0.4,0.8-0.8,1.6-1.2,2.3c0,0,0,0,0,0c-0.6-1.6-1.7-2.6-3.1-3.3h4.2h0.9C81.9,25.7,81.7,26,81.7,26.5z M106.1,35.4
		c0,0-0.1,0-0.1,0c-0.1-1-0.2-1.5-0.3-2.4c0-0.4,0-0.7,0-1.1c0-0.5,0.1-1,0.3-1.4c0.2-0.6,0.4-1.8,0.6-2.5c0.2-0.5,0-1-0.5-1.3
		c-0.1,0-0.1-0.1-0.2-0.1c-0.6-0.2-1.3-0.1-2,0c-0.4,0-1.8,0.5-2.5,0.7c-0.4,0.1-0.5,0.8-0.5,1c0,0-0.2,2.6-0.3,2.6
		c-1.6,1.9-2.4,2.8-4.1,4.7c-0.1-0.4-0.1-0.8-0.2-1.2c-0.1-0.8-0.2-1.7-0.4-2.5c0,0,0,0,0,0c0-0.3,0-0.5-0.1-0.9
		c0.1-1.6,0.1-2.4,0.2-3.9c0-0.3,0-0.4,0-0.7c-0.1-0.2-0.2-0.4-0.3-0.6c-0.6-0.5-1.3-0.8-2.1-1l0.7-4.1h2.8l2.5,4.9
		c0,0,10.8,0,11.1,0C109.2,28.6,107.7,32.5,106.1,35.4z M128,13.9c-0.3,1.7-1.6,2.7-3.7,2.7h-2.9l1-5.4h2.9
		C127.4,11.2,128.3,12.2,128,13.9z"/>
	<path d="M25,8.5c0.2-0.4,0.2-0.8,0-1.1c0-0.4-0.1-0.8-0.4-1.1c-0.3-0.3-0.7-0.6-1-0.8C23,5,22,4.8,21.4,5.5c-2.7,3-5.4,5.8-8.3,8.5
		C11,12,8.8,10,6.7,8C5.9,7.3,4.8,7.5,4.4,8.4C3.7,8.7,3.1,9.2,2.7,9.9c-0.2,0.4-0.2,0.8,0,1.2c1.4,2.5,4.1,4.7,6.3,6.7
		c-0.3,0.3-0.6,0.5-0.9,0.8c-3,2.6-5,4.2-1.3,6.8c0.1,0,0.1,0,0.2,0c0.1,0,0.1,0.1,0.2,0.1c0,0,0,0,0.1,0c0.1,0,0.2,0,0.2,0
		c2-0.4,3.9-2,5.5-3.7c1.6,1.6,3.4,3.2,5.3,4.1c0.5,0.2,1,0.1,1.4-0.2c0.6,0,1.1-0.3,1.4-0.9c0,0,0.1,0,0.1-0.1
		c0.9-0.5,0.9-1.6,0.3-2.3c-1.4-1.7-3-3.2-4.5-4.8C19.8,14.9,23.3,11.9,25,8.5z"/>
	<path d="M130,22.5c-0.2,0.4-0.2,0.8,0,1.1c0,0.4,0.1,0.8,0.4,1.1c0.3,0.3,0.7,0.6,1,0.8c0.6,0.5,1.5,0.6,2.1,0
		c2.7-3,5.4-5.8,8.3-8.5c2.1,2,4.3,4,6.4,5.9c0.8,0.7,1.8,0.5,2.3-0.3c0.7-0.3,1.3-0.8,1.7-1.6c0.2-0.4,0.2-0.8,0-1.2
		c-1.4-2.5-4.1-4.7-6.3-6.7c0.3-0.3,0.6-0.5,0.9-0.8c3-2.6,5-4.2,1.3-6.8c-0.1,0-0.1,0-0.2,0c-0.1,0-0.1-0.1-0.2-0.1c0,0,0,0-0.1,0
		c-0.1,0-0.2,0-0.2,0c-2,0.4-3.9,2-5.5,3.7c-1.6-1.6-3.4-3.2-5.3-4.1c-0.5-0.2-1-0.1-1.4,0.2c-0.6,0-1.1,0.3-1.4,0.9
		c0,0-0.1,0-0.1,0.1c-0.9,0.5-0.9,1.6-0.3,2.3c1.4,1.7,3,3.2,4.5,4.8C135.2,16.1,131.7,19.1,130,22.5z"/>
</g>
</svg>
